<svg width="12" height="12" viewBox="0 0 12 12" fill="none" xmlns="http://www.w3.org/2000/svg">
<path d="M4.44352 0.251723C4.11362 -0.0839076 3.57875 -0.0839076 3.24886 0.251723C2.91896 0.587353 2.91896 1.13152 3.24886 1.46715L7.7078 5.99503L3.24886 10.5229C3.08959 10.6836 3 10.9024 3 11.1306C3 11.3589 3.08959 11.5776 3.24886 11.7383C3.40683 11.9004 3.62186 11.9915 3.84619 11.9915C4.07051 11.9915 4.28555 11.9004 4.44352 11.7383L9.49137 6.60275C9.65064 6.44203 9.74023 6.22326 9.74023 5.99503C9.74023 5.76681 9.65064 5.54804 9.49137 5.38732L4.44352 0.251723Z" fill="#0C1026"/>
</svg>
