<svg width="20" height="12" viewBox="0 0 20 12" fill="none" xmlns="http://www.w3.org/2000/svg">
<path d="M0.773852 6.49285C0.908435 6.49285 1.04302 6.49285 1.1776 6.49285C1.5429 6.47347 1.79284 6.62846 1.9851 6.93844C2.54266 7.86837 3.29248 8.62394 4.17688 9.22452C4.79212 9.65074 5.46503 9.98009 6.1764 10.2126C6.71473 10.3869 7.25306 10.5225 7.81062 10.5807C8.36818 10.6582 8.92574 10.7163 9.4833 10.6775C9.98318 10.6582 10.4831 10.6 10.9829 10.5032C11.4636 10.4063 11.9635 10.2901 12.4249 10.1351C13.0978 9.90259 13.7515 9.57324 14.3475 9.18577C15.1358 8.64331 15.8087 7.98461 16.3855 7.22904C16.4432 7.15155 16.5008 7.07405 16.5585 6.97719C16.8085 6.60909 17.1738 6.49285 17.5775 6.47347C18.2889 6.47347 19.0002 6.47347 19.7116 6.47347C19.7501 6.47347 19.8077 6.47347 19.8462 6.49285C20 6.55097 20.0385 6.60909 19.9615 6.76408C19.8846 6.91907 19.7885 7.09343 19.6732 7.22904C18.7695 8.39146 17.6929 9.37951 16.4432 10.1738C15.7895 10.5807 15.0973 10.9488 14.3667 11.2006C13.9053 11.375 13.4247 11.53 12.944 11.6462C12.2711 11.8206 11.5597 11.9368 10.8676 11.9562C10.4446 11.9756 10.0024 12.0143 9.57943 11.9949C9.00264 11.9562 8.42586 11.8981 7.84907 11.8206C7.48378 11.7818 7.11848 11.7043 6.75318 11.6075C6.23408 11.4525 5.71497 11.2975 5.23432 11.1038C4.77289 10.91 4.33069 10.6969 3.90771 10.4451C2.75415 9.80573 1.77361 8.95329 0.908436 7.96524C0.620043 7.63589 0.370103 7.24842 0.100937 6.89969C-0.0336458 6.72533 -0.0336458 6.60909 0.100937 6.51222C0.13939 6.47347 0.197068 6.47348 0.254746 6.4541C0.408556 6.49285 0.600817 6.49285 0.773852 6.49285Z" fill="white"/>
<path d="M10.0608 0.00249356C10.7529 -0.01688 11.4259 0.0799878 12.0988 0.176855C12.714 0.273723 13.3292 0.428712 13.9253 0.603073C14.5213 0.796809 15.098 1.02929 15.6556 1.31989C16.4247 1.72674 17.1552 2.21108 17.8282 2.79228C18.3473 3.23788 18.8471 3.74159 19.2701 4.28405C19.5008 4.55528 19.6931 4.86525 19.9046 5.15586C19.943 5.21398 19.9623 5.2721 19.9815 5.33022C20.0007 5.44646 19.943 5.54333 19.8469 5.54333C19.4047 5.54333 18.9625 5.54333 18.5203 5.52395C18.2896 5.50458 18.155 5.33022 18.0589 5.15586C17.3475 3.99344 16.3862 3.08289 15.1942 2.42419C14.5982 2.09484 13.9445 1.84298 13.2908 1.66862C12.714 1.51363 12.118 1.41676 11.5028 1.37802C11.0798 1.35864 10.6568 1.31989 10.2531 1.35864C9.71473 1.39739 9.17639 1.49426 8.63806 1.59112C7.94592 1.72674 7.29223 1.9786 6.65777 2.28857C5.98485 2.61792 5.36962 3.02477 4.81206 3.54785C4.29295 4.01282 3.85075 4.55528 3.447 5.11711C3.21629 5.42709 2.90867 5.54333 2.54337 5.5627C1.79355 5.5627 1.04373 5.5627 0.293915 5.5627C0.0439747 5.5627 -0.052156 5.42709 0.082427 5.23335C0.274688 4.92337 0.505402 4.6134 0.736116 4.32279C1.37058 3.56723 2.08195 2.90853 2.88944 2.32732C3.69694 1.74611 4.54289 1.26177 5.44652 0.91305C5.96563 0.719315 6.48473 0.525579 7.02307 0.389964C7.59985 0.25435 8.19586 0.176855 8.79187 0.0993613C9.19562 0.0412406 9.63782 0.0218671 10.0608 0.00249356Z" fill="white"/>
<path d="M10.1945 9.67025C8.8871 9.65087 7.92579 9.18591 7.1952 8.25598C6.79145 7.73289 6.56073 7.13231 6.48383 6.49299C6.36847 5.52431 6.59919 4.63313 7.1952 3.85818C7.61817 3.29635 8.13728 2.88951 8.79097 2.65703C9.3293 2.46329 9.88686 2.3858 10.4829 2.46329C11.0789 2.54078 11.6172 2.71515 12.1171 3.06387C12.6939 3.47071 13.0976 4.01317 13.3668 4.63313C13.4629 4.86561 13.386 5.11746 13.1361 5.23371C12.6554 5.46619 12.1748 5.6793 11.6941 5.91178C11.2135 6.12489 10.7328 6.35737 10.2522 6.57048C9.73305 6.80296 9.21394 7.05482 8.67561 7.2873C8.54103 7.34542 8.54103 7.40354 8.63716 7.50041C9.3293 8.17848 10.3291 8.29472 11.1366 7.77164C11.3673 7.61665 11.5595 7.40354 11.7326 7.17106C11.9056 6.93858 12.1555 6.86108 12.4055 6.84171C12.6939 6.82234 13.0015 6.82234 13.2899 6.84171C13.4629 6.84171 13.5206 6.93858 13.4822 7.09357C13.3668 7.59728 13.1169 8.0235 12.79 8.41097C12.3094 9.03092 11.6557 9.37964 10.9058 9.57338C10.6367 9.65087 10.3483 9.65087 10.1945 9.67025ZM8.04115 6.02802C8.04115 6.08614 8.04115 6.16364 8.04115 6.22176C8.04115 6.31862 8.0796 6.35737 8.17573 6.29925C8.34877 6.20238 8.54103 6.12489 8.71406 6.04739C9.61769 5.62118 10.5021 5.21433 11.4057 4.78811C11.5403 4.72999 11.5595 4.69125 11.4442 4.59438C10.8289 4.03255 10.1368 3.83881 9.3293 4.12941C8.59871 4.42002 8.04115 5.21433 8.04115 6.02802Z" fill="white"/>
</svg>
