<svg width="56" height="12" viewBox="0 0 56 12" fill="none" xmlns="http://www.w3.org/2000/svg">
<path d="M41.6357 11.398C41.6357 11.6789 41.8396 11.8395 42.0843 11.8395C42.2882 11.8395 42.5329 11.6789 42.5329 11.398V0.441472C42.5329 0.160535 42.329 0 42.0843 0C41.8804 0 41.6357 0.160535 41.6357 0.441472V11.398Z" fill="white"/>
<path d="M49.3845 10.9172H46.9785C46.6523 10.9172 46.53 10.7968 46.53 10.4356V1.40547C46.53 1.04427 46.6115 0.923864 46.9785 0.923864H49.2622C52.8916 0.923864 54.6043 3.01082 54.6043 5.94059C54.5635 8.91048 52.6877 10.9172 49.3845 10.9172ZM49.4253 0.0810547H46.6931C45.9998 0.0810547 45.6328 0.442259 45.6328 1.2048V10.6362C45.6328 11.3988 45.959 11.76 46.6931 11.76H49.2622C53.1362 11.76 55.5015 9.31182 55.5015 5.82018C55.5015 2.32855 53.177 0.0810547 49.4253 0.0810547Z" fill="white"/>
<path d="M0.856371 1.40459C0.856371 1.12365 0.937931 1.04338 1.06027 1.04338C1.18261 1.04338 1.26417 1.24405 1.34573 1.28419L7.91124 11.0768C8.07436 11.2775 8.31904 11.6788 8.93073 11.6788C9.5832 11.6788 9.90944 11.2374 9.90944 10.5551V0.48151C9.90944 0.200574 9.70554 0.0400391 9.50164 0.0400391C9.29775 0.0400391 9.09385 0.200574 9.09385 0.48151V10.4347C9.09385 10.7156 9.01229 10.7959 8.88995 10.7959C8.76761 10.7959 8.68605 10.5952 8.60449 10.5551L1.9982 0.762447C1.83508 0.521644 1.5904 0.16044 0.97871 0.16044C0.326237 0.16044 0 0.601912 0 1.28419V11.3979C0 11.6788 0.203898 11.8394 0.407796 11.8394C0.611694 11.8394 0.815592 11.6788 0.815592 11.3979V1.40459H0.856371Z" fill="white"/>
<path d="M22.1843 11.3988C22.1843 11.6797 22.3882 11.8403 22.5921 11.8403C22.796 11.8403 22.9999 11.6797 22.9999 11.3988V1.3252C22.9999 1.04427 23.0815 0.963998 23.2038 0.963998C23.3262 0.963998 23.4485 1.16467 23.4893 1.2048L27.1594 6.26166C27.241 6.42219 27.3633 6.46232 27.5265 6.46232C27.6896 6.46232 27.8119 6.38206 27.8935 6.26166L31.6044 1.2048C31.6452 1.12453 31.7675 0.963998 31.8899 0.963998C32.0122 0.963998 32.0938 1.04427 32.0938 1.3252V11.3988C32.0938 11.6797 32.2977 11.8403 32.5016 11.8403C32.7055 11.8403 32.9094 11.6797 32.9094 11.3988V1.2048C32.9094 0.522526 32.5831 0.121188 31.9307 0.121188C31.319 0.121188 31.1151 0.442259 30.9112 0.723195L27.5265 5.45898L24.1418 0.683061C23.9786 0.442259 23.734 0.0810547 23.1223 0.0810547C22.4698 0.0810547 22.1436 0.522526 22.1436 1.2048V11.3988H22.1843Z" fill="white"/>
<path d="M16.7198 5.61844C16.8829 5.77898 17.1684 5.77898 17.3315 5.61844C17.4946 5.45791 17.4538 5.17697 17.2907 5.01644L13.9468 1.5248C13.7429 1.32413 13.7021 1.24386 13.7021 1.12346C13.7021 1.00306 13.7837 0.922792 13.9876 0.922792H19.1666C19.452 0.922792 19.6151 0.722124 19.6151 0.521455C19.6151 0.320786 19.452 0.120117 19.1666 0.120117H13.7021C13.0904 0.120117 12.6826 0.401054 12.6826 0.922792C12.6826 1.4044 13.0496 1.80574 13.3351 2.12681L16.7198 5.61844Z" fill="white"/>
<path d="M20.1451 10.1535C20.3082 9.91266 20.2267 9.67186 20.0228 9.55146C19.8189 9.43106 19.5742 9.47119 19.4111 9.71199C19.2072 9.91266 18.3508 11.1167 16.3934 11.1167C14.8845 11.1167 13.2126 10.2337 13.2126 8.34745C13.2126 6.66183 14.8845 5.93942 15.17 5.81902C15.4555 5.69862 15.4962 5.45781 15.4147 5.25714C15.2923 5.05648 15.0884 4.97621 14.803 5.09661C14.3544 5.25714 12.3154 6.14009 12.3154 8.42771C12.3154 10.6351 14.1097 11.9996 16.2711 11.9996C18.2693 11.9595 19.615 11.0364 20.1451 10.1535Z" fill="white"/>
</svg>
