<svg width="48" height="48" viewBox="0 0 48 48" fill="none" xmlns="http://www.w3.org/2000/svg">
<path fill-rule="evenodd" clip-rule="evenodd" d="M24.8843 3.53311C24.7113 3.20543 24.3711 3 24 3C23.6289 3 23.2887 3.20543 23.1157 3.53311C23.1143 3.53561 23.1105 3.54234 23.1042 3.55304C23.0906 3.57608 23.0653 3.61751 23.0266 3.67477C22.9493 3.78928 22.8187 3.96724 22.6224 4.18827C22.2306 4.62948 21.5733 5.24656 20.548 5.8745C18.5033 7.12676 14.9407 8.45455 9 8.45455C8.44772 8.45455 8 8.90226 8 9.45455V26.7512C8 30.6501 10.5205 34.4897 13.5874 37.6205C16.6874 40.7852 20.5313 43.4163 23.5605 44.8983C23.8378 45.0339 24.1622 45.0339 24.4395 44.8983C27.4687 43.4163 31.3126 40.7852 34.4126 37.6205C37.4794 34.4897 40 30.6501 40 26.7512V9.45455C40 8.90226 39.5523 8.45455 39 8.45455C33.0593 8.45455 29.4967 7.12675 27.452 5.8745C26.4267 5.24656 25.7694 4.62948 25.3776 4.18827C25.1813 3.96724 25.0507 3.78928 24.9734 3.67478C24.9347 3.61751 24.9094 3.57608 24.8958 3.55304C24.8895 3.54234 24.8857 3.53561 24.8843 3.53311ZM24 5.64626C23.4814 6.20679 22.7061 6.89808 21.5926 7.58005C19.3153 8.97475 15.6711 10.3019 10 10.4423V26.7512C10 29.8405 12.0485 33.1915 15.0162 36.221C17.8012 39.0641 21.2359 41.4598 24 42.8812C26.7641 41.4598 30.1988 39.0641 32.9838 36.221C35.9515 33.1915 38 29.8405 38 26.7512V10.4423C32.3289 10.3019 28.6847 8.97475 26.4074 7.58005C25.2939 6.89808 24.5186 6.20679 24 5.64626Z" fill="#000F3C"/>
<path fill-rule="evenodd" clip-rule="evenodd" d="M24 15.9995C21.9554 15.9995 20.3333 17.6178 20.3333 19.5709C20.3333 21.5241 21.9554 23.1424 24 23.1424C26.0446 23.1424 27.6667 21.5241 27.6667 19.5709C27.6667 17.6178 26.0446 15.9995 24 15.9995ZM27.5156 23.9404C28.8231 22.9232 29.6667 21.3496 29.6667 19.5709C29.6667 16.4746 27.1101 13.9995 24 13.9995C20.8899 13.9995 18.3333 16.4746 18.3333 19.5709C18.3333 21.3496 19.1769 22.9232 20.4844 23.9404C17.8346 25.2157 16 27.8885 16 30.9995C16 31.5518 16.4477 31.9995 17 31.9995C17.5523 31.9995 18 31.5518 18 30.9995C18 27.784 20.6668 25.1424 24 25.1424C27.3332 25.1424 30 27.784 30 30.9995C30 31.5518 30.4477 31.9995 31 31.9995C31.5523 31.9995 32 31.5518 32 30.9995C32 27.8885 30.1654 25.2157 27.5156 23.9404Z" fill="#000F3C"/>
</svg>
