<svg width="144" height="116" viewBox="0 0 144 116" fill="none" xmlns="http://www.w3.org/2000/svg">
<path d="M21.5002 6.04561L0.144534 108.443C-0.618169 112.977 1.66991 116 6.24613 116H27.2205C31.034 116 34.0848 114.111 35.2289 110.332L69.5505 7.93486C71.0759 3.40065 68.7878 0 63.8302 0H28.7459C24.551 0 22.2629 2.26712 21.5002 6.04561ZM80.2284 116H101.203C105.016 116 108.067 114.111 109.211 110.332L143.533 7.93486C145.058 3.40065 142.77 0 137.812 0H102.728C98.5333 0 96.2452 2.26712 95.4825 6.04561L74.1268 108.443C73.3641 112.977 75.6521 116 80.2284 116Z" fill="#B4FFFF"/>
</svg>
