 <svg width="111" height="30" viewBox="0 0 111 30" fill="none" xmlns="http://www.w3.org/2000/svg">
<path
d="M7.18122 29.5267C4.28556 29.5267 3.20452 27.7921 3.20452 25.4662V10.5254H0.270261C0 10.5254 0 10.0523 0 9.65808C0 9.26386 0 8.75137 0.270261 8.75137H3.20452V3.58712C3.20452 3.35059 3.86087 3.35059 4.24696 3.35059C4.63304 3.35059 5.28939 3.35059 5.28939 3.58712V8.75137H9.84522C10.0769 8.75137 10.0769 9.18501 10.0769 9.65808C10.0769 10.1311 10.0769 10.5254 9.84522 10.5254H5.28939V25.3874C5.28939 27.0431 5.98435 27.6738 7.68313 27.6738H9.80661C10.0769 27.6738 10.1541 27.7527 10.1541 28.5411C10.1541 29.4084 10.0769 29.5267 9.80661 29.5267H7.18122Z"
fill="#fff" />
<path fill-rule="evenodd" clip-rule="evenodd"
d="M15.0956 21.9578V19.9079H28.6087V16.0446C28.6087 10.8015 25.4041 7.72656 20.6939 7.72656C16.3311 7.72656 13.0107 10.8015 13.0107 15.6109V22.1155C13.0107 27.0827 16.0222 29.9999 21.1186 29.9999C23.8598 29.9999 26.2921 29.3297 28.2612 28.1865C28.6473 27.9499 27.682 26.2548 27.3732 26.4125C25.8674 27.2404 24.0528 28.0682 21.0414 28.0682C17.0647 28.0682 15.0956 25.7423 15.0956 21.9578ZM20.6945 9.57939C23.8604 9.57939 26.5244 11.6293 26.5244 15.8475V18.1733H15.0962V15.7292C15.0962 11.6293 17.6444 9.57939 20.6945 9.57939Z"
fill="#fff" />
<path
d="M37.257 29.5269C34.3999 29.5269 33.2803 27.7924 33.2803 25.4665V0.236531C33.2803 0 33.9366 0 34.3227 0C34.7088 0 35.3651 0 35.3651 0.236531V25.3876C35.3651 27.0434 36.0987 27.7135 37.7975 27.7135H38.8399C39.1102 27.7135 39.1874 27.7924 39.1874 28.5808C39.1874 29.4481 39.1102 29.5269 38.8399 29.5269H37.257Z"
fill="#fff" />
<path fill-rule="evenodd" clip-rule="evenodd"
d="M43.7431 21.9578V19.9079H57.2561V16.0446C57.2561 10.8015 54.0516 7.72656 49.3413 7.72656C44.9786 7.72656 41.6582 10.8015 41.6582 15.6109V22.1155C41.6582 27.0827 44.6697 29.9999 49.766 29.9999C52.5072 29.9999 54.9396 29.3297 56.9086 28.1865C57.2947 27.9499 56.3295 26.2548 56.0206 26.4125C54.5149 27.2404 52.7003 28.0682 49.6888 28.0682C45.7121 28.0682 43.7431 25.7423 43.7431 21.9578ZM49.3419 9.57939C52.5078 9.57939 55.1718 11.6293 55.1718 15.8475V18.1733H43.7437V15.7292C43.7437 11.6293 46.2918 9.57939 49.3419 9.57939Z"
fill="#fff" />
<path
d="M75.7892 29.6845C75.4031 29.6845 74.7467 29.6845 74.7467 29.448V14.9802C74.7467 11.4716 73.241 9.85534 70.7314 9.85534C68.0674 9.85534 65.5965 12.1812 64.0907 14.4283V29.448C64.0907 29.6845 63.4344 29.6845 63.0483 29.6845C62.6622 29.6845 62.0059 29.6845 62.0059 29.448V8.23905C62.0059 8.00252 62.6622 8.00252 63.0483 8.00252C63.4344 8.00252 64.0521 8.00252 64.0521 8.23905V12.063C65.7123 9.65823 68.2605 7.72656 71.3492 7.72656C74.7081 7.72656 76.8316 10.289 76.8316 14.0341V29.448C76.8316 29.6845 76.1753 29.6845 75.7892 29.6845Z"
fill="#fff" />
<path fill-rule="evenodd" clip-rule="evenodd"
d="M81.2715 15.4138V22.3126C81.2715 27.2404 84.2057 29.9999 89.3021 29.9999C94.4371 29.9999 97.4099 27.2404 97.4099 22.3126V15.4138C97.4099 10.4467 94.4371 7.72656 89.3021 7.72656C84.2057 7.72656 81.2715 10.4467 81.2715 15.4138ZM83.3569 15.7686C83.3569 11.2745 85.5962 9.65823 89.3027 9.65823C93.0477 9.65823 95.3256 11.3139 95.3256 15.7686V21.9578C95.3256 26.4913 93.0477 28.1076 89.3027 28.1076C85.5962 28.1076 83.3569 26.4125 83.3569 21.9578V15.7686Z"
fill="#fff" />
<path
d="M109.455 10.2894C107.756 10.2894 106.328 11.8663 104.204 15.1777V29.4484C104.204 29.6849 103.548 29.6849 103.162 29.6849C102.776 29.6849 102.158 29.6849 102.158 29.4484V8.23946C102.158 8.00293 102.776 8.00293 103.162 8.00293C103.548 8.00293 104.127 8.00293 104.127 8.23946V13.0095C106.444 9.42212 107.679 8.08177 109.996 8.08177H110.768C111 8.08177 111 8.83079 111 9.22501C111 9.61922 110.922 10.2894 110.691 10.2894H109.455Z"
fill="#fff" />
</svg>
